<svg xmlns="http://www.w3.org/2000/svg" viewBox="0 0 100 100">
  <rect x="15" y="41" width="74" height="55" rx="6" fill="#A85C0A" opacity="0.22"/>
  <path d="M 31,38 C 22,14 52,6 54,18 C 56,6 74,12 69,38" fill="none" stroke="#2C1810" stroke-width="8" stroke-linecap="round"/>
  <path d="M 31,38 C 22,14 52,6 54,18 C 56,6 74,12 69,38" fill="none" stroke="#CC6D0D" stroke-width="5" stroke-linecap="round"/>
  <rect x="12" y="36" width="76" height="57" rx="6" fill="#E8841A" stroke="#2C1810" stroke-width="2"/>
  <rect x="10" y="28" width="80" height="30" rx="5" fill="#CC6D0D" stroke="#2C1810" stroke-width="2"/>
  <rect x="17" y="34" width="66" height="18" rx="3" fill="none" stroke="#FAF6EE" stroke-width="1" stroke-dasharray="4,3"/>
  <path d="M 44,49 A 6,6 0 0,1 56,49" stroke="#C9A84C" stroke-width="3" fill="none" stroke-linecap="round"/>
  <rect x="42" y="48" width="16" height="12" rx="3" fill="#C9A84C" stroke="#2C1810" stroke-width="1"/>
  <circle cx="50" cy="54" r="2.5" fill="#7A4A10"/>
  <rect x="20" y="74" width="60" height="13" rx="2" fill="none" stroke="#FAF6EE" stroke-width="1" stroke-dasharray="4,3" opacity="0.75"/>
  <circle cx="20" cy="88" r="3" fill="#C9A84C" stroke="#2C1810" stroke-width="0.8"/>
  <circle cx="80" cy="88" r="3" fill="#C9A84C" stroke="#2C1810" stroke-width="0.8"/>
</svg>
